<svg width="54" height="52" viewBox="0 0 54 52" fill="none" xmlns="http://www.w3.org/2000/svg">
<path d="M10.9133 9.91333C2.02889 18.7978 2.02889 33.2023 10.9133 42.0867C11.5479 42.7213 11.5479 43.7502 10.9133 44.3848C10.2787 45.0194 9.24983 45.0194 8.61522 44.3848C-1.53841 34.2312 -1.53841 17.7689 8.61522 7.61523C9.24983 6.98063 10.2787 6.98063 10.9133 7.61523C11.5479 8.24984 11.5479 9.27873 10.9133 9.91333ZM17.8076 16.8076C12.7308 21.8844 12.7308 30.1156 17.8076 35.1924C18.4422 35.827 18.4422 36.8559 17.8076 37.4905C17.173 38.1251 16.1441 38.1251 15.5095 37.4905C9.16349 31.1445 9.16349 20.8555 15.5095 14.5095C16.1441 13.8749 17.173 13.8749 17.8076 14.5095C18.4422 15.1441 18.4422 16.173 17.8076 16.8076ZM36.1924 14.5095C36.827 13.8749 37.8559 13.8749 38.4905 14.5095C44.8365 20.8555 44.8365 31.1445 38.4905 37.4905C37.8559 38.1251 36.827 38.1251 36.1924 37.4905C35.5578 36.8559 35.5578 35.827 36.1924 35.1924C41.2692 30.1156 41.2692 21.8844 36.1924 16.8076C35.5578 16.173 35.5578 15.1441 36.1924 14.5095ZM43.0867 7.61523C43.7213 6.98063 44.7502 6.98063 45.3848 7.61523C55.5384 17.7689 55.5384 34.2312 45.3848 44.3848C44.7502 45.0194 43.7213 45.0194 43.0867 44.3848C42.4521 43.7502 42.4521 42.7213 43.0867 42.0867C51.9711 33.2023 51.9711 18.7978 43.0867 9.91333C42.4521 9.27873 42.4521 8.24984 43.0867 7.61523Z" fill="url(#paint0_linear_801_285)" id="id_161"></path>
<path d="M33.5001 26C33.5001 29.5899 30.5899 32.5 27.0001 32.5C23.4102 32.5 20.5001 29.5899 20.5001 26C20.5001 22.4102 23.4102 19.5 27.0001 19.5C30.5899 19.5 33.5001 22.4102 33.5001 26Z" fill="url(#paint1_linear_801_285)" id="id_162"></path>
<path d="M10.9133 9.91333C2.02889 18.7978 2.02889 33.2023 10.9133 42.0867C11.5479 42.7213 11.5479 43.7502 10.9133 44.3848C10.2787 45.0194 9.24983 45.0194 8.61522 44.3848C-1.53841 34.2312 -1.53841 17.7689 8.61522 7.61523C9.24983 6.98063 10.2787 6.98063 10.9133 7.61523C11.5479 8.24984 11.5479 9.27873 10.9133 9.91333ZM17.8076 16.8076C12.7308 21.8844 12.7308 30.1156 17.8076 35.1924C18.4422 35.827 18.4422 36.8559 17.8076 37.4905C17.173 38.1251 16.1441 38.1251 15.5095 37.4905C9.16349 31.1445 9.16349 20.8555 15.5095 14.5095C16.1441 13.8749 17.173 13.8749 17.8076 14.5095C18.4422 15.1441 18.4422 16.173 17.8076 16.8076ZM36.1924 14.5095C36.827 13.8749 37.8559 13.8749 38.4905 14.5095C44.8365 20.8555 44.8365 31.1445 38.4905 37.4905C37.8559 38.1251 36.827 38.1251 36.1924 37.4905C35.5578 36.8559 35.5578 35.827 36.1924 35.1924C41.2692 30.1156 41.2692 21.8844 36.1924 16.8076C35.5578 16.173 35.5578 15.1441 36.1924 14.5095ZM43.0867 7.61523C43.7213 6.98063 44.7502 6.98063 45.3848 7.61523C55.5384 17.7689 55.5384 34.2312 45.3848 44.3848C44.7502 45.0194 43.7213 45.0194 43.0867 44.3848C42.4521 43.7502 42.4521 42.7213 43.0867 42.0867C51.9711 33.2023 51.9711 18.7978 43.0867 9.91333C42.4521 9.27873 42.4521 8.24984 43.0867 7.61523Z" stroke="url(#paint2_linear_801_285)" id="id_163"></path>
<path d="M33.5001 26C33.5001 29.5899 30.5899 32.5 27.0001 32.5C23.4102 32.5 20.5001 29.5899 20.5001 26C20.5001 22.4102 23.4102 19.5 27.0001 19.5C30.5899 19.5 33.5001 22.4102 33.5001 26Z" stroke="url(#paint3_linear_801_285)" id="id_164"></path>
<defs>
<linearGradient id="paint0_linear_801_285" x1="27" y1="7.13928" x2="27" y2="44.8607" gradientUnits="userSpaceOnUse">
<stop stop-color="#edbc0c" id="id_165"></stop>
<stop offset="1" stop-color="#edbc0c" id="id_166"></stop>
</linearGradient>
<linearGradient id="paint1_linear_801_285" x1="27" y1="7.13928" x2="27" y2="44.8607" gradientUnits="userSpaceOnUse">
<stop stop-color="#edbc0c" id="id_167"></stop>
<stop offset="1" stop-color="#edbc0c" id="id_168"></stop>
</linearGradient>
<linearGradient id="paint2_linear_801_285" x1="27" y1="7.13928" x2="27" y2="44.8607" gradientUnits="userSpaceOnUse">
<stop stop-color="#edbc0c" id="id_169"></stop>
<stop offset="1" stop-color="#edbc0c" id="id_170"></stop>
</linearGradient>
<linearGradient id="paint3_linear_801_285" x1="27" y1="7.13928" x2="27" y2="44.8607" gradientUnits="userSpaceOnUse">
<stop stop-color="#edbc0c" id="id_171"></stop>
<stop offset="1" stop-color="#edbc0c" id="id_172"></stop>
</linearGradient>
</defs>
</svg>